<?xml version="1.0" encoding="UTF-8"?>
<svg viewBox="0 0 256 256" xmlns="http://www.w3.org/2000/svg">
<rect width="256" height="256" rx="60" fill="#F4F2ED"/>
<path d="m121.45 28.054c-0.43 0.0391-1.799 0.176-3.031 0.2737-28.406 2.5611-55.014 17.889-71.867 41.447-9.3842 13.099-15.386 27.957-17.654 43.695-0.8015 5.494-0.8993 7.117-0.8993 14.565 0 7.449 0.0978 9.072 0.8993 14.565 5.435 37.556 32.16 69.111 68.407 80.802 6.491 2.092 13.333 3.519 21.114 4.379 3.031 0.332 16.129 0.332 19.16 0 13.431-1.486 24.809-4.809 36.031-10.538 1.72-0.879 2.053-1.114 1.818-1.309-0.156-0.118-7.488-9.952-16.285-21.838l-15.992-21.603-20.04-29.658c-11.026-16.305-20.097-29.639-20.176-29.639-0.078-0.019-0.156 13.158-0.195 29.248-0.059 28.172-0.078 29.306-0.43 29.97-0.508 0.958-0.899 1.349-1.721 1.78-0.6252 0.312-1.1726 0.371-4.1247 0.371h-3.3822l-0.8993-0.567c-0.5865-0.371-1.0166-0.86-1.3099-1.427l-0.4106-0.88 0.0391-39.198 0.0587-39.218 0.6061-0.7625c0.3128-0.4105 0.9775-0.9384 1.4467-1.1926 0.8015-0.391 1.1144-0.4301 4.4966-0.4301 3.9885 0 4.6525 0.1564 5.6895 1.2904 0.293 0.3128 11.143 16.657 24.125 36.344 12.981 19.687 30.733 46.569 39.452 59.765l15.836 23.989 0.802-0.528c7.096-4.614 14.604-11.183 20.547-18.026 12.649-14.526 20.802-32.238 23.539-51.124 0.801-5.493 0.899-7.116 0.899-14.565 0-7.448-0.098-9.071-0.899-14.565-5.435-37.556-32.161-69.11-68.407-80.801-6.393-2.0723-13.196-3.4995-20.821-4.3597-1.877-0.1955-14.8-0.4106-16.422-0.2542zm40.938 60.489c0.938 0.4692 1.701 1.3685 1.975 2.3069 0.156 0.5083 0.195 11.379 0.156 35.875l-0.059 35.152-6.197-9.502-6.217-9.501v-25.552c0-16.52 0.078-25.807 0.195-26.256 0.313-1.0948 0.997-1.955 1.936-2.4634 0.801-0.4105 1.095-0.4496 4.164-0.4496 2.894 0 3.402 0.0391 4.047 0.391z"/>
</svg>
