<?xml version="1.0" encoding="UTF-8"?>
<svg fill="none" viewBox="0 0 256 256" xmlns="http://www.w3.org/2000/svg">
<rect width="256" height="256" rx="60" fill="url(#a)"/>
<path d="m11.487 129.08l50.304 20.384v14.269l-59.549-27.591v-8.372l9.2455 1.31zm50.304-16.743l-50.231 20.674-9.3183 1.02v-8.445l59.549-27.518v14.269z" fill="#fff"/>
<path d="m241.37 131.99l-51.76-20.165v-13.905l62.17 27.518v8.518l-10.41-1.966zm-51.76 17.763l51.906-20.602 10.264-1.529v8.445l-62.17 27.591v-13.905z" fill="#fff"/>
<path d="m176.08 61.099c-0.288 4.5663-2.345 9.3345-1.772 13.774 3.593 6.3533 11.501 7.367 18.025 7.8025 4.52 0.8076 4.463-2.1851 4.16-5.5473 0.018-5.3744 0.036-10.749 0.055-16.123-6.823 0.0245-13.648-0.0677-20.468 0.0945zm-53.801 12.771c-11.108 1.8848-22.368 7.1929-31.609 13.583-7.4382 5.7887 6.385 11.399 11.4 12.337 10.09 0.1229 19.039-6.6824 25.667-13.747 2.164-2.9706 4.867-7.517 2.148-10.959-2.076-1.8003-5.095-1.3635-7.606-1.2137zm23.637 16.154c-9.133 1.739-17.823 5.5037-25.512 10.745-5.637 1.77-10.283 7.959-3.298 11.06 7.335 5.845 15.836 4.413 22.591 0.467 6.186-3.677 12.868-8.214 15.73-15.136 2.703-7.5829-4.271-7.8645-9.511-7.136zm25.909 29.383c-1.701 7.104-8.855 10.334-12.661 15.963-3.112 4.106-1.671 8.943 1.872 12.175 1.725 3.577 4.749 5.576 7.992 2.469 8.352-5.678 10.662-16.738 10.315-26.321 0.617-3.958-3.924-0.38-7.518-4.286zm-31.783 13.343c-11.091 1.898-22.184 7.302-31.429 13.682-7.177 5.781 6.34 11.179 11.396 12.035 10.277 0.015 19.444-6.608 25.942-14.13 2.26-2.987 4.999-8.788 0.524-11.163-2.001-0.848-4.324-0.599-6.433-0.424z" clip-rule="evenodd" fill="#B956A6" fill-rule="evenodd"/>
<path d="m90.667 87.453c-8.5298 3.4131-16.759 7.5573-24.884 11.897-1.5104 5.6152-0.2994 12.568-0.6909 18.725-0.0295 25.316-0.015 50.633-0.0199 75.949h18.821c3.7995-3.578 8.56-6.197 12.687-9.446 15.894-11.399 31.783-22.842 47.656-34.209 1.168 0.525 0.42-6.871-2.142-1.734-6.071 5.713-14.129 10.412-22.658 9.953-4.84-1.592-12.642-4.293-12.691-10.224 3.407-4.011-6.286 2.1-8.9377 2.975-8.6226 4.14-17.041 8.763-25.681 12.826 2.077-2.23 5.9617-4.309 8.7148-6.521 19.673-14.122 39.341-28.299 59.061-42.41 3.793-2.663 7.457-5.568 11.367-8.057 0.357 1.379 1.027-6.593-1.881-1.685-5.928 5.876-13.924 10.25-22.357 10.31-4.743-1.44-14.845-4.883-12.596-11.007 1.097-2.149-10.188 4.581-5.202 0.786 5.307-3.878 10.656-7.6872 16.004-11.525 2.701-0.2034 2.126-10.236-1.544-3.7643-6.165 5.4169-14.265 10.373-22.756 9.1985-4.7698-1.3731-10.493-4.0328-12.227-9.0207-0.5744-1.1981 3.2114-3.0643 1.9559-3.0167zm35.339 6.1932c-0.473 1.353 0.857-0.4945 0 0z" clip-rule="evenodd" fill="#FCCC44" fill-rule="evenodd"/>
<path d="m179.9 80.749c-2.663 12.717-5.574 26.026-8.077 38.658 7.192 9.064 7.889-5.726 9.147-9.908 2.033-8.741 4.441-15.341 4.696-24.392 0.54-3.088-3.09-4.9589-5.766-4.3582zm8.251 9.9722c-0.225 1.304 0.328 0.2451 0 0zm-8.39 28.514c0.346 0.745 0.346-0.746 0 0z" clip-rule="evenodd" fill="#62777F" fill-rule="evenodd"/>
<path d="m184.62 82.189c2.244 12.603-5.189 27.913-7.62 39.795 5.52-4.062 9.785-22.492 10.875-29.706 0.281-0.8252 0.627-2.9016 0.702-2.976 0.347-1.7516 3.58-4.7184 3.757-6.6272 1.882-1.3284-9.25-1.5424-7.714-0.4858zm-4.577 37.047c-0.347 0.745-0.347-0.746 0 0z" clip-rule="evenodd" fill="#4E5E67" fill-rule="evenodd"/>
<path d="m90.854 87.663c-3.1117 3.1158-1.944 2.3548 0.3727-0.2363l-0.3727 0.2363zm33.66 1.5432c-3.605 5.4171-16.605 9.9469-18.242 10.298 7.82-1.4645 15.109-6.3289 20.238-12.028-0.815 0.363-1.299 1.2168-1.996 1.7303zm-35.798 1.759c1.9432 4.6719 9.0084 7.7765 12.442 8.5005-4.6872-1.5097-10.204-4.1883-12.442-8.5005zm37.01 2.7017c-0.981 1.1583-4.475 2.8912-6.317 4.5896-3.951 2.9147-8.038 5.6227-11.944 8.6097 2.487-0.107 9.775-5.551 6.039-0.027 3.166 5.449 10.059 9.238 16.344 8.892 8.3-1.303 15.954-5.892 21.456-12.274-6.679 6.609-15.509 12.829-25.28 11.972-4.729-1.092-17.651-7.767-9.007-12.446 3.048-2.507 8.303-3.8204 8.898-8.2259-0.125-0.55 0.9-1.0868-0.189-1.0903v-1e-4zm-23.659 6.1232c3.145 0.4111 3.145-0.4107 0 0zm49.003 7.5251c-12.479 8.694-24.777 17.728-37.148 26.578-14.02 10.034-27.98 20.105-41.996 30.131 5.2699-1.777 10.55-5.247 15.786-7.644 7.2089-3.814 14.812-6.827 21.558-11.46 13.338-7.852 27.444-15.333 37.703-27.346 2.239-2.626 4.484-6.853 4.584-9.696-0.323 0.091-0.078-1.137-0.486-0.563zm-42.46 39.117c-2.245 2.537-3.157 4.35-0.827 1.124-0.041 0.374 1.891-2.003 0.827-1.124zm34.156 1.214c-5.914 6.236-14.661 10.734-22.868 11.037 9.488 0.069 18.048-5.563 24.476-12.207-0.422-0.51-1.277 1.188-1.608 1.17zm1.807 1.96c-19.869 14.464-40.424 29.467-60.36 43.879 3.1411 0.985 9.979 1.447 13.099-2.574 6.6408-4.582 14.106-7.951 20.768-12.595 9.647-6.26 19.976-13.102 25.455-23.623 0.261-1.411 2.2-3.949 1.038-5.087zm-37.813 0.918c0.922 3.892 12.448 8.359 11.198 7.504-4.25-1.49-8.466-3.812-11.198-7.504z" clip-rule="evenodd" fill="#DC9624" fill-rule="evenodd"/>
<defs>
<linearGradient id="a" x2="256" y1="256" gradientUnits="userSpaceOnUse">
<stop stop-color="#DB7093" offset="0"/>
<stop stop-color="#F3B661" offset="1"/>
</linearGradient>
</defs>
</svg>
